<svg xmlns="http://www.w3.org/2000/svg" viewBox="0 0 800 400">
  <!-- Background -->
  <rect width="800" height="400" fill="#0F172A"/>
  
  <!-- Gradient definitions -->
  <defs>
    <linearGradient id="nodeGradient" x1="0%" y1="0%" x2="100%" y2="100%">
      <stop offset="0%" style="stop-color:#475569"/>
      <stop offset="100%" style="stop-color:#334155"/>
    </linearGradient>
    <linearGradient id="batchGradient" x1="0%" y1="0%" x2="100%" y2="100%">
      <stop offset="0%" style="stop-color:#34D399"/>
      <stop offset="100%" style="stop-color:#059669"/>
    </linearGradient>
    <linearGradient id="workerGradient" x1="0%" y1="0%" x2="100%" y2="100%">
      <stop offset="0%" style="stop-color:#A855F7"/>
      <stop offset="100%" style="stop-color:#6B21A8"/>
    </linearGradient>
  </defs>

  <!-- Worker Threads -->
  <g id="workers" font-family="Inter, Arial" font-size="12" fill="#94A3B8">
    <!-- Worker 1 -->
    <rect x="50" y="50" width="120" height="60" fill="url(#workerGradient)" rx="5">
      <animate attributeName="opacity" values="1;0.7;1" dur="2s" repeatCount="indefinite"/>
    </rect>
    <text x="110" y="85" text-anchor="middle">Worker 1</text>

    <!-- Worker 2 -->
    <rect x="50" y="120" width="120" height="60" fill="url(#workerGradient)" rx="5">
      <animate attributeName="opacity" values="1;0.7;1" dur="2s" repeatCount="indefinite" begin="0.5s"/>
    </rect>
    <text x="110" y="155" text-anchor="middle">Worker 2</text>

    <!-- Worker 3 -->
    <rect x="50" y="190" width="120" height="60" fill="url(#workerGradient)" rx="5">
      <animate attributeName="opacity" values="1;0.7;1" dur="2s" repeatCount="indefinite" begin="1s"/>
    </rect>
    <text x="110" y="225" text-anchor="middle">Worker 3</text>
  </g>

  <!-- Batch Processing -->
  <g id="batches">
    <!-- Batch 1 -->
    <g transform="translate(200, 80)">
      <rect width="150" height="30" fill="url(#batchGradient)" rx="3"/>
      <text x="75" y="20" text-anchor="middle" font-family="Inter, Arial" font-size="12" fill="white">Batch 1 (25 vectors)</text>
    </g>

    <!-- Batch 2 -->
    <g transform="translate(200, 150)">
      <rect width="150" height="30" fill="url(#batchGradient)" rx="3"/>
      <text x="75" y="20" text-anchor="middle" font-family="Inter, Arial" font-size="12" fill="white">Batch 2 (25 vectors)</text>
    </g>

    <!-- Batch 3 -->
    <g transform="translate(200, 220)">
      <rect width="150" height="30" fill="url(#batchGradient)" rx="3"/>
      <text x="75" y="20" text-anchor="middle" font-family="Inter, Arial" font-size="12" fill="white">Batch 3 (25 vectors)</text>
    </g>
  </g>

  <!-- HNSW Structure -->
  <g transform="translate(450, 50)">
    <!-- Nodes -->
    <g id="nodes">
      <circle cx="150" cy="50" r="8" fill="url(#nodeGradient)"/>
      <circle cx="100" cy="100" r="8" fill="url(#nodeGradient)"/>
      <circle cx="200" cy="100" r="8" fill="url(#nodeGradient)"/>
      <circle cx="50" cy="150" r="8" fill="url(#nodeGradient)"/>
      <circle cx="150" cy="150" r="8" fill="url(#nodeGradient)"/>
      <circle cx="250" cy="150" r="8" fill="url(#nodeGradient)"/>
      
      <!-- New batch nodes with animation -->
      <circle cx="75" cy="200" r="8" fill="url(#batchGradient)">
        <animate attributeName="r" values="0;8" dur="0.5s" begin="1s" fill="freeze"/>
      </circle>
      <circle cx="175" cy="200" r="8" fill="url(#batchGradient)">
        <animate attributeName="r" values="0;8" dur="0.5s" begin="1.5s" fill="freeze"/>
      </circle>
      <circle cx="225" cy="200" r="8" fill="url(#batchGradient)">
        <animate attributeName="r" values="0;8" dur="0.5s" begin="2s" fill="freeze"/>
      </circle>
    </g>

    <!-- Connections -->
    <g stroke="#94A3B8" stroke-width="1" stroke-opacity="0.3">
      <path d="M150,50 L100,100"/>
      <path d="M150,50 L200,100"/>
      <path d="M100,100 L50,150"/>
      <path d="M100,100 L150,150"/>
      <path d="M200,100 L150,150"/>
      <path d="M200,100 L250,150"/>
    </g>

    <!-- New connections -->
    <g stroke="#34D399" stroke-width="1">
      <path d="M50,150 L75,200">
        <animate attributeName="opacity" values="0;1" dur="0.5s" begin="1s" fill="freeze"/>
      </path>
      <path d="M150,150 L175,200">
        <animate attributeName="opacity" values="0;1" dur="0.5s" begin="1.5s" fill="freeze"/>
      </path>
      <path d="M250,150 L225,200">
        <animate attributeName="opacity" values="0;1" dur="0.5s" begin="2s" fill="freeze"/>
      </path>
    </g>
  </g>

  <!-- Legend -->
  <g transform="translate(50, 300)" font-family="Inter, Arial" font-size="12" fill="#94A3B8">
    <rect x="0" y="0" width="20" height="20" fill="url(#workerGradient)" rx="3"/>
    <text x="30" y="15">Worker Thread</text>
    
    <rect x="150" y="0" width="20" height="20" fill="url(#batchGradient)" rx="3"/>
    <text x="180" y="15">Batch (25 vectors)</text>
    
    <circle cx="300" cy="10" r="6" fill="url(#nodeGradient)"/>
    <text x="315" y="15">Existing Node</text>
  </g>
</svg>