<!-- docs/images/ef-impact.svg -->
<svg xmlns="http://www.w3.org/2000/svg" viewBox="0 0 800 600">
    <!-- Background -->
    <rect width="800" height="600" fill="#f8f9fa"/>
    
    <!-- Title -->
    <text x="400" y="30" text-anchor="middle" font-size="20" font-weight="bold">Impact of EF Parameter on Search</text>
    
    <!-- Section Labels -->
    <text x="200" y="70" text-anchor="middle" font-size="16">Low EF (Fast, Less Accurate)</text>
    <text x="600" y="70" text-anchor="middle" font-size="16">High EF (Slower, More Accurate)</text>
    
    <!-- Low EF Search Space -->
    <g transform="translate(50,100)">
        <!-- Target point -->
        <circle cx="150" cy="200" r="12" fill="#d62728"/>
        <!-- Search space -->
        <circle cx="150" cy="200" r="60" fill="#aec7e8" opacity="0.2"/>
        <!-- Nearby nodes -->
        <circle cx="120" cy="180" r="8" fill="#1f77b4"/>
        <circle cx="180" cy="190" r="8" fill="#1f77b4"/>
        <circle cx="140" cy="240" r="8" fill="#1f77b4"/>
        <!-- Visited paths -->
        <line x1="150" y1="200" x2="120" y2="180" stroke="#ff7f0e" stroke-width="2"/>
        <line x1="150" y1="200" x2="180" y2="190" stroke="#ff7f0e" stroke-width="2"/>
        <line x1="150" y1="200" x2="140" y2="240" stroke="#ff7f0e" stroke-width="2"/>
        
        <!-- Outside nodes (not visited) -->
        <circle cx="90" cy="150" r="8" fill="#1f77b4" opacity="0.5"/>
        <circle cx="200" cy="150" r="8" fill="#1f77b4" opacity="0.5"/>
        <circle cx="210" cy="220" r="8" fill="#1f77b4" opacity="0.5"/>
        <circle cx="100" cy="250" r="8" fill="#1f77b4" opacity="0.5"/>
    </g>
    
    <!-- High EF Search Space -->
    <g transform="translate(450,100)">
        <!-- Target point -->
        <circle cx="150" cy="200" r="12" fill="#d62728"/>
        <!-- Search space -->
        <circle cx="150" cy="200" r="120" fill="#aec7e8" opacity="0.2"/>
        <!-- Nearby nodes -->
        <circle cx="120" cy="180" r="8" fill="#1f77b4"/>
        <circle cx="180" cy="190" r="8" fill="#1f77b4"/>
        <circle cx="140" cy="240" r="8" fill="#1f77b4"/>
        <circle cx="90" cy="150" r="8" fill="#1f77b4"/>
        <circle cx="200" cy="150" r="8" fill="#1f77b4"/>
        <circle cx="210" cy="220" r="8" fill="#1f77b4"/>
        <circle cx="100" cy="250" r="8" fill="#1f77b4"/>
        
        <!-- Visited paths -->
        <line x1="150" y1="200" x2="120" y2="180" stroke="#ff7f0e" stroke-width="2"/>
        <line x1="150" y1="200" x2="180" y2="190" stroke="#ff7f0e" stroke-width="2"/>
        <line x1="150" y1="200" x2="140" y2="240" stroke="#ff7f0e" stroke-width="2"/>
        <line x1="150" y1="200" x2="90" y2="150" stroke="#ff7f0e" stroke-width="2"/>
        <line x1="150" y1="200" x2="200" y2="150" stroke="#ff7f0e" stroke-width="2"/>
        <line x1="150" y1="200" x2="210" y2="220" stroke="#ff7f0e" stroke-width="2"/>
        <line x1="150" y1="200" x2="100" y2="250" stroke="#ff7f0e" stroke-width="2"/>
    </g>
    
    <!-- Legend -->
    <g transform="translate(50,450)">
        <circle cx="20" cy="0" r="8" fill="#d62728"/>
        <text x="40" y="5" font-size="12">Query Point</text>
        
        <circle cx="20" cy="25" r="8" fill="#1f77b4"/>
        <text x="40" y="30" font-size="12">Data Points</text>
        
        <line x1="10" y1="50" x2="30" y2="50" stroke="#ff7f0e" stroke-width="2"/>
        <text x="40" y="55" font-size="12">Search Paths</text>
        
        <circle cx="20" cy="75" r="20" fill="#aec7e8" opacity="0.2"/>
        <text x="40" y="80" font-size="12">Search Space</text>
    </g>
    
    <!-- Performance Comparison -->
    <g transform="translate(300,450)">
        <text x="0" y="0" font-size="14" font-weight="bold">EF Trade-offs:</text>
        <text x="0" y="25" font-size="12">Low EF (left):</text>
        <text x="20" y="45" font-size="12">• Faster search (fewer comparisons)</text>
        <text x="20" y="65" font-size="12">• May miss better matches</text>
        <text x="0" y="90" font-size="12">High EF (right):</text>
        <text x="20" y="110" font-size="12">• More thorough search</text>
        <text x="20" y="130" font-size="12">• Higher accuracy but slower</text>
    </g>
</svg>