<svg xmlns="http://www.w3.org/2000/svg" viewBox="0 0 800 400">
  <!-- Background -->
  <rect width="800" height="400" fill="#0F172A"/>
  
  <!-- Gradient definitions -->
  <defs>
    <linearGradient id="nodeGradient" x1="0%" y1="0%" x2="100%" y2="100%">
      <stop offset="0%" style="stop-color:#475569"/>
      <stop offset="100%" style="stop-color:#334155"/>
    </linearGradient>
    <linearGradient id="newNodeGradient" x1="0%" y1="0%" x2="100%" y2="100%">
      <stop offset="0%" style="stop-color:#34D399"/>
      <stop offset="100%" style="stop-color:#059669"/>
    </linearGradient>
    <linearGradient id="beamGradient" x1="0%" y1="0%" x2="0%" y2="100%">
      <stop offset="0%" style="stop-color:#34D399;stop-opacity:0.2"/>
      <stop offset="100%" style="stop-color:#34D399;stop-opacity:0"/>
    </linearGradient>
  </defs>

  <!-- Structure Evolution Steps -->
  <g id="step1" opacity="1">
    <!-- Initial structure -->
    <g stroke="#94A3B8" stroke-width="1" stroke-opacity="0.3">
      <path d="M300,100 L200,200"/>
      <path d="M300,100 L300,200"/>
      <path d="M200,200 L150,300"/>
      <path d="M200,200 L250,300"/>
      <path d="M300,200 L250,300"/>
      <path d="M300,200 L350,300"/>
    </g>
    
    <circle cx="300" cy="100" r="12" fill="url(#nodeGradient)"/>
    <circle cx="200" cy="200" r="12" fill="url(#nodeGradient)"/>
    <circle cx="300" cy="200" r="12" fill="url(#nodeGradient)"/>
    <circle cx="150" cy="300" r="12" fill="url(#nodeGradient)"/>
    <circle cx="250" cy="300" r="12" fill="url(#nodeGradient)"/>
    <circle cx="350" cy="300" r="12" fill="url(#nodeGradient)"/>
  </g>

  <!-- Growth animation -->
  <g id="step2" transform="translate(200,0)">
    <!-- New connections -->
    <g stroke="#34D399" stroke-width="2">
      <path d="M300,100 L400,200">
        <animate attributeName="stroke-dasharray" values="0,1000;200,0" dur="1s" begin="0.5s" fill="freeze"/>
      </path>
      <path d="M400,200 L450,300">
        <animate attributeName="stroke-dasharray" values="0,1000;200,0" dur="1s" begin="1s" fill="freeze"/>
      </path>
      <path d="M400,200 L350,300">
        <animate attributeName="stroke-dasharray" values="0,1000;200,0" dur="1s" begin="1.5s" fill="freeze"/>
      </path>
    </g>

    <!-- New nodes with appearance animation -->
    <circle cx="400" cy="200" r="12" fill="url(#newNodeGradient)">
      <animate attributeName="r" values="0;12" dur="0.5s" begin="0s" fill="freeze"/>
      <animate attributeName="opacity" values="0;1" dur="0.5s" begin="0s" fill="freeze"/>
    </circle>
    <circle cx="450" cy="300" r="12" fill="url(#newNodeGradient)">
      <animate attributeName="r" values="0;12" dur="0.5s" begin="1s" fill="freeze"/>
      <animate attributeName="opacity" values="0;1" dur="0.5s" begin="1s" fill="freeze"/>
    </circle>
    <circle cx="350" cy="300" r="12" fill="url(#newNodeGradient)">
      <animate attributeName="r" values="0;12" dur="0.5s" begin="1.5s" fill="freeze"/>
      <animate attributeName="opacity" values="0;1" dur="0.5s" begin="1.5s" fill="freeze"/>
    </circle>
  </g>

  <!-- Growth indicators -->
  <g stroke="#34D399" stroke-width="2" fill="none">
    <path d="M750,200 L780,200 M775,195 L780,200 L775,205">
      <animate attributeName="opacity" values="0;1;0" dur="2s" repeatCount="indefinite"/>
    </path>
    <path d="M750,300 L780,300 M775,295 L780,300 L775,305">
      <animate attributeName="opacity" values="0;1;0" dur="2s" repeatCount="indefinite" begin="0.5s"/>
    </path>
  </g>

  <!-- Legend -->
  <g transform="translate(50, 30)" font-family="Inter, Arial" font-size="12" fill="#94A3B8">
    <circle cx="10" cy="10" r="6" fill="url(#nodeGradient)"/>
    <text x="25" y="14">Existing Node</text>
    
    <circle cx="10" cy="30" r="6" fill="url(#newNodeGradient)"/>
    <text x="25" y="34">New Node</text>
    
    <path d="M0,50 L20,50" stroke="#34D399" stroke-width="2"/>
    <text x="25" y="54">New Connection</text>
  </g>
</svg>