<svg xmlns="http://www.w3.org/2000/svg" viewBox="0 0 800 400">
  <!-- Background -->
  <rect width="800" height="400" fill="#0F172A"/>
  
  <!-- Gradient definitions -->
  <defs>
    <linearGradient id="nodeGradient" x1="0%" y1="0%" x2="100%" y2="100%">
      <stop offset="0%" style="stop-color:#475569"/>
      <stop offset="100%" style="stop-color:#334155"/>
    </linearGradient>
    <linearGradient id="activeNodeGradient" x1="0%" y1="0%" x2="100%" y2="100%">
      <stop offset="0%" style="stop-color:#60A5FA"/>
      <stop offset="100%" style="stop-color:#3B82F6"/>
    </linearGradient>
    <linearGradient id="newNodeGradient" x1="0%" y1="0%" x2="100%" y2="100%">
      <stop offset="0%" style="stop-color:#34D399"/>
      <stop offset="100%" style="stop-color:#059669"/>
    </linearGradient>
  </defs>

  <!-- Layers -->
  <g id="layers" stroke="#1E293B" stroke-width="1">
    <line x1="50" y1="100" x2="750" y2="100"/>
    <line x1="50" y1="200" x2="750" y2="200"/>
    <line x1="50" y1="300" x2="750" y2="300"/>
  </g>

  <!-- Layer Labels -->
  <g font-family="Inter, Arial" font-size="14" fill="#94A3B8">
    <text x="20" y="105">L2</text>
    <text x="20" y="205">L1</text>
    <text x="20" y="305">L0</text>
  </g>

  <!-- Existing Connections -->
  <g stroke="#94A3B8" stroke-width="1" stroke-opacity="0.3">
    <!-- L2 to L1 -->
    <path d="M200,100 L150,200"/>
    <path d="M200,100 L300,200"/>
    <path d="M400,100 L300,200"/>
    <path d="M400,100 L450,200"/>
    <path d="M600,100 L450,200"/>
    <path d="M600,100 L600,200"/>

    <!-- L1 to L0 -->
    <path d="M150,200 L100,300"/>
    <path d="M150,200 L200,300"/>
    <path d="M300,200 L200,300"/>
    <path d="M300,200 L300,300"/>
    <path d="M450,200 L400,300"/>
    <path d="M450,200 L500,300"/>
    <path d="M600,200 L500,300"/>
    <path d="M600,200 L600,300"/>
  </g>

  <!-- New Connections -->
  <g stroke="#34D399" stroke-width="2">
    <!-- Animated connections to new node -->
    <path d="M450,200 L350,300">
      <animate attributeName="stroke-dasharray" values="0,1000;200,0" dur="1s" begin="0.5s" fill="freeze"/>
    </path>
    <path d="M300,200 L350,300">
      <animate attributeName="stroke-dasharray" values="0,1000;200,0" dur="1s" begin="1s" fill="freeze"/>
    </path>
  </g>

  <!-- Nodes -->
  <g id="nodes">
    <!-- Existing nodes -->
    <!-- L2 nodes -->
    <circle cx="200" cy="100" r="12" fill="url(#nodeGradient)"/>
    <circle cx="400" cy="100" r="12" fill="url(#nodeGradient)"/>
    <circle cx="600" cy="100" r="12" fill="url(#nodeGradient)"/>
    
    <!-- L1 nodes -->
    <circle cx="150" cy="200" r="12" fill="url(#nodeGradient)"/>
    <circle cx="300" cy="200" r="12" fill="url(#activeNodeGradient)"/>
    <circle cx="450" cy="200" r="12" fill="url(#activeNodeGradient)"/>
    <circle cx="600" cy="200" r="12" fill="url(#nodeGradient)"/>
    
    <!-- L0 nodes -->
    <circle cx="100" cy="300" r="12" fill="url(#nodeGradient)"/>
    <circle cx="200" cy="300" r="12" fill="url(#nodeGradient)"/>
    <circle cx="300" cy="300" r="12" fill="url(#nodeGradient)"/>
    <circle cx="400" cy="300" r="12" fill="url(#nodeGradient)"/>
    <circle cx="500" cy="300" r="12" fill="url(#nodeGradient)"/>
    <circle cx="600" cy="300" r="12" fill="url(#nodeGradient)"/>
    
    <!-- New node with appearance animation -->
    <circle cx="350" cy="300" r="12" fill="url(#newNodeGradient)">
      <animate attributeName="r" values="0;12" dur="0.5s" fill="freeze"/>
      <animate attributeName="opacity" values="0;1" dur="0.5s" fill="freeze"/>
    </circle>
  </g>

  <!-- Legend -->
  <g transform="translate(650, 30)" font-family="Inter, Arial" font-size="12" fill="#94A3B8">
    <circle cx="10" cy="10" r="6" fill="url(#nodeGradient)"/>
    <text x="25" y="14">Existing Node</text>
    
    <circle cx="10" cy="30" r="6" fill="url(#activeNodeGradient)"/>
    <text x="25" y="34">Active Node</text>

    <circle cx="10" cy="50" r="6" fill="url(#newNodeGradient)"/>
    <text x="25" y="54">New Node</text>
    
    <path d="M0,70 L20,70" stroke="#34D399" stroke-width="2"/>
    <text x="25" y="74">New Connection</text>
  </g>
</svg>