<svg xmlns="http://www.w3.org/2000/svg" viewBox="0 0 800 400">
  <!-- Background -->
  <rect width="800" height="400" fill="#0F172A"/>
  
  <!-- Gradient definitions -->
  <defs>
    <linearGradient id="nodeGradient" x1="0%" y1="0%" x2="100%" y2="100%">
      <stop offset="0%" style="stop-color:#475569"/>
      <stop offset="100%" style="stop-color:#334155"/>
    </linearGradient>
    <linearGradient id="activeNodeGradient" x1="0%" y1="0%" x2="100%" y2="100%">
      <stop offset="0%" style="stop-color:#60A5FA"/>
      <stop offset="100%" style="stop-color:#3B82F6"/>
    </linearGradient>
    <linearGradient id="pruneNodeGradient" x1="0%" y1="0%" x2="100%" y2="100%">
      <stop offset="0%" style="stop-color:#F87171"/>
      <stop offset="100%" style="stop-color:#DC2626"/>
    </linearGradient>
  </defs>

  <!-- Layers -->
  <g id="layers" stroke="#1E293B" stroke-width="1">
    <line x1="50" y1="100" x2="750" y2="100"/>
    <line x1="50" y1="200" x2="750" y2="200"/>
    <line x1="50" y1="300" x2="750" y2="300"/>
  </g>

  <!-- Layer Labels -->
  <g font-family="Inter, Arial" font-size="14" fill="#94A3B8">
    <text x="20" y="105">L2</text>
    <text x="20" y="205">L1</text>
    <text x="20" y="305">L0</text>
  </g>

  <!-- Existing Connections -->
  <g stroke="#94A3B8" stroke-width="1" stroke-opacity="0.3">
    <!-- L2 to L1 connections -->
    <path d="M300,100 L250,200"/>
    <path d="M300,100 L350,200"/>
    <path d="M500,100 L450,200"/>
    <path d="M500,100 L550,200"/>
    
    <!-- L1 to L0 stable connections -->
    <path d="M250,200 L200,300"/>
    <path d="M250,200 L300,300"/>
    <path d="M550,200 L500,300"/>
    <path d="M550,200 L600,300"/>
  </g>

  <!-- Connections to be pruned -->
  <g stroke="#F87171" stroke-width="1" stroke-dasharray="5,5">
    <!-- Center connections to be removed -->
    <path d="M350,200 L300,300">
      <animate attributeName="opacity" values="1;0" dur="1s" begin="1s" fill="freeze"/>
    </path>
    <path d="M350,200 L400,300">
      <animate attributeName="opacity" values="1;0" dur="1s" begin="1s" fill="freeze"/>
    </path>
    <path d="M450,200 L400,300">
      <animate attributeName="opacity" values="1;0" dur="1s" begin="1s" fill="freeze"/>
    </path>
    <path d="M450,200 L500,300">
      <animate attributeName="opacity" values="1;0" dur="1s" begin="1s" fill="freeze"/>
    </path>
  </g>

  <!-- Distance Indicators -->
  <g stroke="#60A5FA" stroke-width="1" stroke-dasharray="3,3" stroke-opacity="0.5">
    <path d="M350,200 Q375,250 400,300"/>
    <path d="M450,200 Q425,250 400,300"/>
  </g>

  <!-- Nodes -->
  <g id="nodes">
    <!-- L2 nodes -->
    <circle cx="300" cy="100" r="12" fill="url(#nodeGradient)"/>
    <circle cx="500" cy="100" r="12" fill="url(#nodeGradient)"/>
    
    <!-- L1 nodes -->
    <circle cx="250" cy="200" r="12" fill="url(#nodeGradient)"/>
    <circle cx="350" cy="200" r="12" fill="url(#pruneNodeGradient)">
      <animate attributeName="fill" values="url(#pruneNodeGradient);url(#nodeGradient)" dur="1s" begin="2s" fill="freeze"/>
    </circle>
    <circle cx="450" cy="200" r="12" fill="url(#pruneNodeGradient)">
      <animate attributeName="fill" values="url(#pruneNodeGradient);url(#nodeGradient)" dur="1s" begin="2s" fill="freeze"/>
    </circle>
    <circle cx="550" cy="200" r="12" fill="url(#nodeGradient)"/>
    
    <!-- L0 nodes -->
    <circle cx="200" cy="300" r="12" fill="url(#nodeGradient)"/>
    <circle cx="300" cy="300" r="12" fill="url(#nodeGradient)"/>
    <circle cx="400" cy="300" r="12" fill="url(#activeNodeGradient)"/>
    <circle cx="500" cy="300" r="12" fill="url(#nodeGradient)"/>
    <circle cx="600" cy="300" r="12" fill="url(#nodeGradient)"/>
  </g>

  <!-- M value indicator -->
  <g font-family="Inter, Arial" font-size="12" fill="#94A3B8">
    <text x="350" y="170">M = 2</text>
    <path d="M350,175 C350,185 450,185 450,175" stroke="#94A3B8" stroke-width="1" fill="none"/>
  </g>

  <!-- Legend -->
  <g transform="translate(650, 30)" font-family="Inter, Arial" font-size="12" fill="#94A3B8">
    <circle cx="10" cy="10" r="6" fill="url(#nodeGradient)"/>
    <text x="25" y="14">Regular Node</text>
    
    <circle cx="10" cy="30" r="6" fill="url(#activeNodeGradient)"/>
    <text x="25" y="34">Target Node</text>
    
    <circle cx="10" cy="50" r="6" fill="url(#pruneNodeGradient)"/>
    <text x="25" y="54">Pruning Candidate</text>
    
    <path d="M0,70 L20,70" stroke="#F87171" stroke-width="1" stroke-dasharray="5,5"/>
    <text x="25" y="74">Connection to Prune</text>
  </g>
</svg>