<!-- docs/images/search-process.svg -->
<?xml version="1.0" encoding="UTF-8"?>
<svg xmlns="http://www.w3.org/2000/svg" viewBox="0 0 800 600">
    <!-- Content from the first SVG (HNSW Search Process) -->
    <!-- Background -->
    <rect width="800" height="600" fill="#f8f9fa"/>
    
    <!-- Title -->
    <text x="400" y="30" text-anchor="middle" font-size="20" font-weight="bold">HNSW Search Process</text>
    
    <!-- Layer Labels -->
    <text x="50" y="100" font-size="14">Layer 2</text>
    <text x="50" y="250" font-size="14">Layer 1</text>
    <text x="50" y="400" font-size="14">Layer 0</text>
    
    <!-- Layer 2 (Top layer) -->
    <g transform="translate(0,80)">
        <circle cx="200" cy="20" r="15" fill="#ff7f0e" opacity="0.7"/>
        <circle cx="400" cy="20" r="15" fill="#1f77b4" opacity="0.7"/>
        <circle cx="600" cy="20" r="15" fill="#1f77b4" opacity="0.7"/>
        <!-- Connections -->
        <line x1="200" y1="20" x2="400" y2="20" stroke="#999" stroke-width="2"/>
        <line x1="400" y1="20" x2="600" y2="20" stroke="#999" stroke-width="2"/>
    </g>
    
    <!-- Layer 1 (Middle layer) -->
    <g transform="translate(0,230)">
        <circle cx="150" cy="20" r="15" fill="#ff7f0e" opacity="0.7"/>
        <circle cx="300" cy="20" r="15" fill="#1f77b4" opacity="0.7"/>
        <circle cx="450" cy="20" r="15" fill="#1f77b4" opacity="0.7"/>
        <circle cx="600" cy="20" r="15" fill="#1f77b4" opacity="0.7"/>
        <!-- Connections -->
        <line x1="150" y1="20" x2="300" y2="20" stroke="#999" stroke-width="2"/>
        <line x1="300" y1="20" x2="450" y2="20" stroke="#999" stroke-width="2"/>
        <line x1="450" y1="20" x2="600" y2="20" stroke="#999" stroke-width="2"/>
        <!-- Vertical connections -->
        <line x1="150" y1="20" x2="200" y2="-130" stroke="#999" stroke-width="2" stroke-dasharray="5,5"/>
        <line x1="450" y1="20" x2="400" y2="-130" stroke="#999" stroke-width="2" stroke-dasharray="5,5"/>
    </g>
    
    <!-- Layer 0 (Bottom layer) -->
    <g transform="translate(0,380)">
        <circle cx="100" cy="20" r="15" fill="#ff7f0e" opacity="0.7"/>
        <circle cx="250" cy="20" r="15" fill="#ff7f0e" opacity="0.7"/>
        <circle cx="400" cy="20" r="15" fill="#2ca02c" opacity="0.7"/>
        <circle cx="550" cy="20" r="15" fill="#1f77b4" opacity="0.7"/>
        <circle cx="700" cy="20" r="15" fill="#1f77b4" opacity="0.7"/>
        <!-- Connections -->
        <line x1="100" y1="20" x2="250" y2="20" stroke="#999" stroke-width="2"/>
        <line x1="250" y1="20" x2="400" y2="20" stroke="#999" stroke-width="2"/>
        <line x1="400" y1="20" x2="550" y2="20" stroke="#999" stroke-width="2"/>
        <line x1="550" y1="20" x2="700" y2="20" stroke="#999" stroke-width="2"/>
        <!-- Vertical connections -->
        <line x1="250" y1="20" x2="150" y2="-130" stroke="#999" stroke-width="2" stroke-dasharray="5,5"/>
        <line x1="550" y1="20" x2="450" y2="-130" stroke="#999" stroke-width="2" stroke-dasharray="5,5"/>
    </g>
    
    <!-- Legend -->
    <g transform="translate(600,500)">
        <circle cx="20" cy="0" r="8" fill="#ff7f0e"/>
        <text x="40" y="5" font-size="12">Search Path</text>
        <circle cx="20" cy="25" r="8" fill="#2ca02c"/>
        <text x="40" y="30" font-size="12">Target Node</text>
        <circle cx="20" cy="50" r="8" fill="#1f77b4"/>
        <text x="40" y="55" font-size="12">Other Nodes</text>
    </g>
</svg>